<svg width="24" height="24" viewBox="0 0 24 24" fill="none" xmlns="http://www.w3.org/2000/svg">
<path d="M23.9977 0.703125C23.9977 0.314812 23.6828 0 23.2945 0H0.703125C0.314812 0 0 0.314812 0 0.703125V2.90625H23.9977V0.703125Z" fill="#CACACA"/>
<path d="M9.1875 12.8906H11.2969V15.25H9.1875V12.8906Z" fill="#CACACA"/>
<path d="M12.7031 16.6562H14.8125V19.0156H12.7031V16.6562Z" fill="#CACACA"/>
<path d="M9.1875 16.6562H11.2969V19.0156H9.1875V16.6562Z" fill="#CACACA"/>
<path d="M5.66995 16.6562H7.78125V19.0156H5.66995V16.6562Z" fill="#CACACA"/>
<path d="M5.66995 12.8906H7.78125V15.25H5.66995V12.8906Z" fill="#CACACA"/>
<path d="M12.7031 12.8906H14.8125V15.25H12.7031V12.8906Z" fill="#CACACA"/>
<path d="M16.2188 12.8906H18.3323V15.25H16.2188V12.8906Z" fill="#CACACA"/>
<path d="M16.2188 16.6562H18.3323V19.0156H16.2188V16.6562Z" fill="#CACACA"/>
<path d="M23.2969 22.5938H22.5467V4.3125H1.47038V22.5938H0.705475C0.317162 22.5938 0.00234985 22.9086 0.00234985 23.2969C0.00234985 23.6852 0.317162 24 0.705475 24H23.2969C23.6852 24 24 23.6852 24 23.2969C24 22.9086 23.6852 22.5938 23.2969 22.5938ZM10.5702 7.09866H11.2981V6.37092C11.2981 5.98261 11.6129 5.6678 12.0012 5.6678C12.3895 5.6678 12.7043 5.98261 12.7043 6.37092V7.09866H13.4321C13.8204 7.09866 14.1353 7.41347 14.1353 7.80178C14.1353 8.19009 13.8204 8.50491 13.4321 8.50491H12.7043V9.23264C12.7043 9.62095 12.3895 9.93577 12.0012 9.93577C11.6129 9.93577 11.2981 9.62095 11.2981 9.23264V8.50491H10.5702C10.1819 8.50491 9.8671 8.19009 9.8671 7.80178C9.8671 7.41347 10.1819 7.09866 10.5702 7.09866ZM19.7386 22.5938H18.3323V20.4219H16.2188V22.5938H14.8125V20.4219H12.7031V22.5938H11.2969V20.4219H9.18751V22.5938H7.78126V20.4219H5.66996V22.5938H4.26371C4.2668 11.5896 4.2571 12.2413 4.27083 12.1397C4.29549 11.7738 4.59938 11.4844 4.97157 11.4844H19.0355C19.3865 11.4844 19.7386 11.7469 19.7386 12.2344V22.5938Z" fill="#CACACA"/>
</svg>
