<svg width="24" height="24" viewBox="0 0 24 24" fill="none" xmlns="http://www.w3.org/2000/svg">
<path d="M22.987 0H1.01443C0.454429 0 0 0.514494 0 1.14941V18.6278C0 19.2631 0.454429 19.778 1.01443 19.778H4.98565V23.0826C4.98565 23.9748 5.50187 24.2668 6.13214 23.7331L10.8046 19.7788H22.9863C23.5459 19.7788 24 19.2639 24 18.6298V1.14941C24.0018 0.514494 23.5466 0 22.987 0ZM6.46546 11.5305C5.59862 11.5305 4.89597 10.7344 4.89597 9.75218C4.89597 8.7696 5.59862 7.97385 6.46546 7.97385C7.33266 7.97385 8.03531 8.7696 8.03531 9.75218C8.03425 10.7344 7.3316 11.5305 6.46546 11.5305ZM12.0009 11.5305C11.1344 11.5305 10.4317 10.7344 10.4317 9.75218C10.4317 8.7696 11.1344 7.97385 12.0009 7.97385C12.8677 7.97385 13.5707 8.7696 13.5707 9.75218C13.57 10.7344 12.8677 11.5305 12.0009 11.5305ZM17.5374 11.5305C16.6698 11.5305 15.9668 10.7344 15.9668 9.75218C15.9668 8.7696 16.6698 7.97385 17.5374 7.97385C18.4038 7.97385 19.1061 8.7696 19.1061 9.75218C19.1065 10.7344 18.4042 11.5305 17.5374 11.5305Z" fill="#CACACA"/>
</svg>
